<?xml version="1.0" standalone="no"?><!DOCTYPE svg PUBLIC "-//W3C//DTD SVG 1.1//EN" "http://www.w3.org/Graphics/SVG/1.1/DTD/svg11.dtd"><svg t="1713182943324" class="icon" viewBox="0 0 1024 1024" version="1.1" xmlns="http://www.w3.org/2000/svg" p-id="16057" xmlns:xlink="http://www.w3.org/1999/xlink" width="128" height="128"><path d="M556.96 535.04L465.12 512l-26.56 106.4L528 640a57.92 57.92 0 0 0 64-40.48 50.72 50.72 0 0 0-35.04-64.48z" fill="#e9973d" p-id="16058"></path><path d="M512 73.28A438.72 438.72 0 1 0 950.72 512 438.72 438.72 0 0 0 512 73.28z m192.96 372c-8.96 53.92-66.56 71.84-66.56 71.84a102.88 102.88 0 0 1 47.04 118.56c-20.8 83.36-115.04 82.4-139.84 76.16l-37.44-9.44-20 80-49.6-12.48 20-80-32-8-20 80-52-13.12 20-80-97.76-24.32 13.76-55.2 52.96 13.12c4.64 1.28 5.12 0 5.92-4.16s64-256 64-257.76 1.28-4.8-4.32-6.24L353.6 320l12.48-49.76 100.96 25.28 20.8-83.84 48 12-20.8 83.84 38.08 9.44 20.96-83.68 48 11.84-20.96 84.48a256 256 0 0 1 53.6 23.36c21.12 13.76 59.04 38.56 50.24 92.32z" fill="#e9973d" p-id="16059"></path><path d="M561.44 372.64l-59.2-14.88-25.28 101.44 64.8 16A53.28 53.28 0 0 0 608 438.08c10.56-42.56-36.48-63.04-46.56-65.44z" fill="#e9973d" p-id="16060"></path></svg>