<?xml version="1.0" standalone="no"?><!DOCTYPE svg PUBLIC "-//W3C//DTD SVG 1.1//EN" "http://www.w3.org/Graphics/SVG/1.1/DTD/svg11.dtd"><svg class="icon" width="128px" height="128.00px" viewBox="0 0 1024 1024" version="1.1" xmlns="http://www.w3.org/2000/svg"><path d="M512 0a512 512 0 1 0 0 1024 512 512 0 0 0 0-1024zM269.824 376.900267h382.0544l-71.099733-71.133867a42.666667 42.666667 0 0 1 59.869866-59.938133l143.496534 143.1552a42.666667 42.666667 0 0 1-29.934934 72.2944H269.824a42.666667 42.666667 0 0 1 0-84.753067v0.341333z m484.352 270.916266H372.189867l71.099733 71.099734a42.666667 42.666667 0 0 1-59.938133 59.938133l-143.428267-143.837867a42.666667 42.666667 0 0 1 29.934933-72.328533h484.352a42.666667 42.666667 0 0 1 0 84.753067v0.341333z" fill="#1095db" /></svg>