<svg width="90" height="90" version="1.1" xmlns="http://www.w3.org/2000/svg" desc="Created with imagetracer.js version 1.2.6" ><path fill="rgb(0,134,204)" stroke="rgb(0,134,204)" stroke-width="1" opacity="0.37254901960784315" d="M 35.5 0 L 39 0.5 L 35.5 1 L 35.5 0 Z " /><path fill="rgb(0,134,204)" stroke="rgb(0,134,204)" stroke-width="1" opacity="0.37254901960784315" d="M 51.5 0 L 54 0.5 L 51.5 1 L 51.5 0 Z " /><path fill="rgb(0,134,204)" stroke="rgb(0,134,204)" stroke-width="1" opacity="0.37254901960784315" d="M 67.5 5 L 68.5 7 L 67.5 5 Z " /><path fill="rgb(0,134,204)" stroke="rgb(0,134,204)" stroke-width="1" opacity="0.37254901960784315" d="M 19.5 7 L 18.5 9 L 19.5 7 Z " /><path fill="rgb(0,134,204)" stroke="rgb(0,134,204)" stroke-width="1" opacity="0.37254901960784315" d="M 70.5 7 L 71.5 9 L 70.5 7 Z " /><path fill="rgb(0,134,204)" stroke="rgb(0,134,204)" stroke-width="1" opacity="0.37254901960784315" d="M 16.5 9 L 9.5 17 L 16.5 9 Z " /><path fill="rgb(0,134,204)" stroke="rgb(0,134,204)" stroke-width="1" opacity="0.37254901960784315" d="M 73.5 9 L 79.5 16 L 73.5 9 Z " /><path fill="rgb(0,134,204)" stroke="rgb(0,134,204)" stroke-width="1" opacity="0.37254901960784315" d="M 8.5 18 L 7.5 20 L 8.5 18 Z " /><path fill="rgb(0,134,204)" stroke="rgb(0,134,204)" stroke-width="1" opacity="0.37254901960784315" d="M 81.5 18 L 82.5 20 L 81.5 18 Z " /><path fill="rgb(0,134,204)" stroke="rgb(0,134,204)" stroke-width="1" opacity="0.37254901960784315" d="M 6.5 21 L 5.5 23 L 6.5 21 Z " /><path fill="rgb(0,134,204)" stroke="rgb(0,134,204)" stroke-width="1" opacity="0.37254901960784315" d="M 83.5 21 L 84.5 23 L 83.5 21 Z " /><path fill="rgb(0,134,204)" stroke="rgb(0,134,204)" stroke-width="1" opacity="0.37254901960784315" d="M 27.5 24 L 47 24.5 L 27.5 25 L 27.5 24 Z " /><path fill="rgb(0,134,204)" stroke="rgb(0,134,204)" stroke-width="1" opacity="0.37254901960784315" d="M 53.5 24 L 65.5 24 L 67 25.5 L 65.5 25 L 53.5 25 L 53.5 24 Z " /><path fill="rgb(0,134,204)" stroke="rgb(0,134,204)" stroke-width="1" opacity="0.37254901960784315" d="M 22.5 25 L 21.5 27 L 22.5 25 Z " /><path fill="rgb(0,134,204)" stroke="rgb(0,134,204)" stroke-width="1" opacity="0.37254901960784315" d="M 26.5 29 L 43 29 L 43 62 L 40 60.5 L 42 60.5 L 42 30 L 26.5 30 L 26.5 29 Z " /><path fill="rgb(0,134,204)" stroke="rgb(0,134,204)" stroke-width="1" opacity="0.37254901960784315" d="M 47 29 L 64 29.5 L 48 30 L 48 60.5 L 49 61.5 L 47 62 L 47 29 Z " /><path fill="rgb(0,134,204)" stroke="rgb(0,134,204)" stroke-width="1" opacity="0.37254901960784315" d="M 70.5 29 L 71 33.5 L 70 33.5 L 70.5 29 Z " /><path fill="rgb(0,134,204)" stroke="rgb(0,134,204)" stroke-width="1" opacity="0.37254901960784315" d="M 19.5 30 L 20 32.5 L 19 32.5 L 19.5 30 Z " /><path fill="rgb(0,134,204)" stroke="rgb(0,134,204)" stroke-width="1" opacity="0.37254901960784315" d="M 65.5 31 L 66 32.5 L 63.5 36 L 64 34.5 L 65.5 31 Z " /><path fill="rgb(0,134,204)" stroke="rgb(0,134,204)" stroke-width="1" opacity="0.37254901960784315" d="M 0.5 35 L 1 38.5 L 0 38.5 L 0.5 35 Z " /><path fill="rgb(0,134,204)" stroke="rgb(0,134,204)" stroke-width="1" opacity="0.37254901960784315" d="M 26.5 35 L 27.5 37 L 26.5 35 Z " /><path fill="rgb(0,134,204)" stroke="rgb(0,134,204)" stroke-width="1" opacity="0.37254901960784315" d="M 89.5 36 L 90 38.5 L 89 38.5 L 89.5 36 Z " /><path fill="rgb(0,134,204)" stroke="rgb(0,134,204)" stroke-width="1" opacity="0.37254901960784315" d="M 28.5 38 L 30 40.5 L 28 39.5 L 28.5 38 Z " /><path fill="rgb(0,134,204)" stroke="rgb(0,134,204)" stroke-width="1" opacity="0.37254901960784315" d="M 66.5 41 L 65.5 43 L 66.5 41 Z " /><path fill="rgb(0,134,204)" stroke="rgb(0,134,204)" stroke-width="1" opacity="0.37254901960784315" d="M 25.5 44 L 26.5 46 L 25.5 44 Z " /><path fill="rgb(0,134,204)" stroke="rgb(0,134,204)" stroke-width="1" opacity="0.37254901960784315" d="M 32.5 45 L 34 47.5 L 32 46.5 L 32.5 45 Z " /><path fill="rgb(0,134,204)" stroke="rgb(0,134,204)" stroke-width="1" opacity="0.37254901960784315" d="M 57.5 46 L 57 47.5 L 55.5 50 L 56 48.5 L 57.5 46 Z " /><path fill="rgb(0,134,204)" stroke="rgb(0,134,204)" stroke-width="1" opacity="0.37254901960784315" d="M 63.5 46 L 62.5 48 L 63.5 46 Z " /><path fill="rgb(0,134,204)" stroke="rgb(0,134,204)" stroke-width="1" opacity="0.37254901960784315" d="M 0.5 51 L 1 54.5 L 0 54.5 L 0.5 51 Z " /><path fill="rgb(0,134,204)" stroke="rgb(0,134,204)" stroke-width="1" opacity="0.37254901960784315" d="M 35.5 51 L 38 54.5 L 36 53.5 L 35.5 51 Z " /><path fill="rgb(0,134,204)" stroke="rgb(0,134,204)" stroke-width="1" opacity="0.37254901960784315" d="M 89.5 51 L 90 54.5 L 89 54.5 L 89.5 51 Z " /><path fill="rgb(0,134,204)" stroke="rgb(0,134,204)" stroke-width="1" opacity="0.37254901960784315" d="M 59.5 53 L 58.5 55 L 59.5 53 Z " /><path fill="rgb(0,134,204)" stroke="rgb(0,134,204)" stroke-width="1" opacity="0.37254901960784315" d="M 33.5 58 L 34.5 60 L 33.5 58 Z " /><path fill="rgb(0,134,204)" stroke="rgb(0,134,204)" stroke-width="1" opacity="0.37254901960784315" d="M 50.5 58 L 49.5 60 L 50.5 58 Z " /><path fill="rgb(0,134,204)" stroke="rgb(0,134,204)" stroke-width="1" opacity="0.37254901960784315" d="M 56.5 58 L 55.5 60 L 56.5 58 Z " /><path fill="rgb(0,134,204)" stroke="rgb(0,134,204)" stroke-width="1" opacity="0.37254901960784315" d="M 52.5 65 L 51.5 67 L 52.5 65 Z " /><path fill="rgb(0,134,204)" stroke="rgb(0,134,204)" stroke-width="1" opacity="0.37254901960784315" d="M 5.5 67 L 6.5 69 L 5.5 67 Z " /><path fill="rgb(0,134,204)" stroke="rgb(0,134,204)" stroke-width="1" opacity="0.37254901960784315" d="M 38.5 67 L 39.5 69 L 38.5 67 Z " /><path fill="rgb(0,134,204)" stroke="rgb(0,134,204)" stroke-width="1" opacity="0.37254901960784315" d="M 84.5 67 L 83.5 69 L 84.5 67 Z " /><path fill="rgb(0,134,204)" stroke="rgb(0,134,204)" stroke-width="1" opacity="0.37254901960784315" d="M 7.5 70 L 8.5 72 L 7.5 70 Z " /><path fill="rgb(0,134,204)" stroke="rgb(0,134,204)" stroke-width="1" opacity="0.37254901960784315" d="M 49.5 70 L 48.5 72 L 49.5 70 Z " /><path fill="rgb(0,134,204)" stroke="rgb(0,134,204)" stroke-width="1" opacity="0.37254901960784315" d="M 82.5 70 L 81.5 72 L 82.5 70 Z " /><path fill="rgb(0,134,204)" stroke="rgb(0,134,204)" stroke-width="1" opacity="0.37254901960784315" d="M 47.5 73 L 46.5 75 L 47.5 73 Z " /><path fill="rgb(0,134,204)" stroke="rgb(0,134,204)" stroke-width="1" opacity="0.37254901960784315" d="M 80.5 73 L 73.5 81 L 80.5 73 Z " /><path fill="rgb(0,134,204)" stroke="rgb(0,134,204)" stroke-width="1" opacity="0.37254901960784315" d="M 10.5 74 L 16.5 81 L 10.5 74 Z " /><path fill="rgb(0,134,204)" stroke="rgb(0,134,204)" stroke-width="1" opacity="0.37254901960784315" d="M 18.5 81 L 19.5 83 L 18.5 81 Z " /><path fill="rgb(0,134,204)" stroke="rgb(0,134,204)" stroke-width="1" opacity="0.37254901960784315" d="M 71.5 81 L 70.5 83 L 71.5 81 Z " /><path fill="rgb(0,134,204)" stroke="rgb(0,134,204)" stroke-width="1" opacity="0.37254901960784315" d="M 21.5 83 L 22.5 85 L 21.5 83 Z " /><path fill="rgb(0,134,204)" stroke="rgb(0,134,204)" stroke-width="1" opacity="0.37254901960784315" d="M 35.5 89 L 39 89.5 L 35.5 90 L 35.5 89 Z " /><path fill="rgb(0,134,204)" stroke="rgb(0,134,204)" stroke-width="1" opacity="0.37254901960784315" d="M 51.5 89 L 55 89.5 L 51.5 90 L 51.5 89 Z " /><path fill="rgb(0,136,204)" stroke="rgb(0,136,204)" stroke-width="1" opacity="0.996078431372549" d="M 40.5 0 L 44 0.5 L 40.5 1 L 40.5 0 Z " /><path fill="rgb(0,136,204)" stroke="rgb(0,136,204)" stroke-width="1" opacity="0.996078431372549" d="M 69.5 7 L 70.5 9 L 69.5 7 Z " /><path fill="rgb(0,136,204)" stroke="rgb(0,136,204)" stroke-width="1" opacity="0.996078431372549" d="M 17.5 9 L 16.5 11 L 17.5 9 Z " /><path fill="rgb(0,136,204)" stroke="rgb(0,136,204)" stroke-width="1" opacity="0.996078431372549" d="M 14.5 12 L 11.5 16 L 14.5 12 Z " /><path fill="rgb(0,136,204)" stroke="rgb(0,136,204)" stroke-width="1" opacity="0.996078431372549" d="M 75.5 12 L 78.5 16 L 75.5 12 Z " /><path fill="rgb(0,136,204)" stroke="rgb(0,136,204)" stroke-width="1" opacity="0.996078431372549" d="M 8.5 19 L 7.5 21 L 8.5 19 Z " /><path fill="rgb(0,136,204)" stroke="rgb(0,136,204)" stroke-width="1" opacity="0.996078431372549" d="M 81.5 19 L 82.5 21 L 81.5 19 Z " /><path fill="rgb(0,136,204)" stroke="rgb(0,136,204)" stroke-width="1" opacity="0.996078431372549" d="M 25.5 23 L 54 23.5 L 25.5 24 L 25.5 23 Z " /><path fill="rgb(0,136,204)" stroke="rgb(0,136,204)" stroke-width="1" opacity="0.996078431372549" d="M 25.5 31 L 27 33.5 L 25 32.5 L 25.5 31 Z " /><path fill="rgb(0,136,204)" stroke="rgb(0,136,204)" stroke-width="1" opacity="0.996078431372549" d="M 65.5 44 L 64.5 46 L 65.5 44 Z " /><path fill="rgb(0,136,204)" stroke="rgb(0,136,204)" stroke-width="1" opacity="0.996078431372549" d="M 57.5 45 L 56.5 47 L 57.5 45 Z " /><path fill="rgb(0,136,204)" stroke="rgb(0,136,204)" stroke-width="1" opacity="0.996078431372549" d="M 0.5 47 L 1 49.5 L 0 49.5 L 0.5 47 Z " /><path fill="rgb(0,136,204)" stroke="rgb(0,136,204)" stroke-width="1" opacity="0.996078431372549" d="M 89.5 47 L 90 49.5 L 89 49.5 L 89.5 47 Z " /><path fill="rgb(0,136,204)" stroke="rgb(0,136,204)" stroke-width="1" opacity="0.996078431372549" d="M 55.5 48 L 54.5 50 L 55.5 48 Z " /><path fill="rgb(0,136,204)" stroke="rgb(0,136,204)" stroke-width="1" opacity="0.996078431372549" d="M 27.5 49 L 28.5 51 L 27.5 49 Z " /><path fill="rgb(0,136,204)" stroke="rgb(0,136,204)" stroke-width="1" opacity="0.996078431372549" d="M 29.5 52 L 31 54.5 L 29 53.5 L 29.5 52 Z " /><path fill="rgb(0,136,204)" stroke="rgb(0,136,204)" stroke-width="1" opacity="0.996078431372549" d="M 59.5 54 L 60 55.5 L 57 57.5 L 59.5 54 Z " /><path fill="rgb(0,136,204)" stroke="rgb(0,136,204)" stroke-width="1" opacity="0.996078431372549" d="M 39.5 57 L 40.5 59 L 39.5 57 Z " /><path fill="rgb(0,136,204)" stroke="rgb(0,136,204)" stroke-width="1" opacity="0.996078431372549" d="M 38.5 68 L 41 72.5 L 40 72.5 L 38.5 68 Z " /><path fill="rgb(0,136,204)" stroke="rgb(0,136,204)" stroke-width="1" opacity="0.996078431372549" d="M 7.5 69 L 8.5 71 L 7.5 69 Z " /><path fill="rgb(0,136,204)" stroke="rgb(0,136,204)" stroke-width="1" opacity="0.996078431372549" d="M 82.5 69 L 81.5 71 L 82.5 69 Z " /><path fill="rgb(0,136,204)" stroke="rgb(0,136,204)" stroke-width="1" opacity="0.996078431372549" d="M 11.5 74 L 13.5 77 L 11.5 74 Z " /><path fill="rgb(0,136,204)" stroke="rgb(0,136,204)" stroke-width="1" opacity="0.996078431372549" d="M 78.5 74 L 75.5 78 L 78.5 74 Z " /><path fill="rgb(0,136,204)" stroke="rgb(0,136,204)" stroke-width="1" opacity="0.996078431372549" d="M 15.5 78 L 17.5 81 L 15.5 78 Z " /><path fill="rgb(0,136,204)" stroke="rgb(0,136,204)" stroke-width="1" opacity="0.996078431372549" d="M 19.5 81 L 20.5 83 L 19.5 81 Z " /><path fill="rgb(0,136,204)" stroke="rgb(0,136,204)" stroke-width="1" opacity="0.996078431372549" d="M 40.5 89 L 43 89.5 L 40.5 90 L 40.5 89 Z " /><path fill="rgb(0,136,204)" stroke="rgb(0,136,204)" stroke-width="1" opacity="0.996078431372549" d="M 47.5 89 L 50 89.5 L 47.5 90 L 47.5 89 Z " /><path fill="rgb(2,140,203)" stroke="rgb(2,140,203)" stroke-width="1" opacity="0.44313725490196076" d="M 10.5 16 L 9.5 18 L 10.5 16 Z " /><path fill="rgb(2,140,203)" stroke="rgb(2,140,203)" stroke-width="1" opacity="0.44313725490196076" d="M 79.5 16 L 80.5 18 L 79.5 16 Z " /><path fill="rgb(2,140,203)" stroke="rgb(2,140,203)" stroke-width="1" opacity="0.44313725490196076" d="M 61.5 50 L 60.5 52 L 61.5 50 Z " /><path fill="rgb(2,140,203)" stroke="rgb(2,140,203)" stroke-width="1" opacity="0.44313725490196076" d="M 9.5 72 L 10.5 74 L 9.5 72 Z " /><path fill="rgb(2,140,203)" stroke="rgb(2,140,203)" stroke-width="1" opacity="0.44313725490196076" d="M 80.5 72 L 79.5 74 L 80.5 72 Z " /><path fill="rgb(2,140,203)" stroke="rgb(2,140,203)" stroke-width="1" opacity="0.44313725490196076" d="M 41.5 73 L 42.5 75 L 41.5 73 Z " /><path fill="rgb(2,140,203)" stroke="rgb(2,140,203)" stroke-width="1" opacity="0.44313725490196076" d="M 47.5 74 L 46.5 76 L 44 75.5 L 47.5 74 Z " /><path fill="rgb(0,136,204)" stroke="rgb(0,136,204)" stroke-width="1" opacity="1" d="M 44.5 0 Q 58.2 0.8 67.5 6 L 81 18.5 L 87 29.5 L 90 41.5 L 90 46.5 L 88 57.5 L 85 65.5 L 71.5 81 L 57.5 88 L 43.5 90 L 26.5 86 L 14 78 L 4 62.5 L 1 53.5 L 0 43.5 L 2 32.5 L 5 24.5 L 19.5 8 L 32.5 2 L 43.5 1 L 44.5 0 Z M 26 23 L 21 25 L 19 29 L 19 36 L 40 73 Q 41 77 47 76 L 71 36 Q 72 29 70 26 L 67 24 L 55 24 L 54 23 L 26 23 Z " /><path fill="rgb(0,136,204)" stroke="rgb(0,136,204)" stroke-width="1" opacity="1" d="M 26 30 L 42 30 L 42 59.5 L 41 59.5 L 30 40.5 L 26 30 Z " /><path fill="rgb(0,136,204)" stroke="rgb(0,136,204)" stroke-width="1" opacity="1" d="M 48 30 L 63.5 30 L 64 33.5 L 48.5 60 L 48 30 Z " /><path fill="rgb(0,0,0)" stroke="rgb(0,0,0)" stroke-width="1" opacity="0" d="M 0 0 L 35 0.5 Q 18.2 4.7 9 16.5 Q 2.8 23.8 0.5 35 L 0 0 Z " /><path fill="rgb(0,0,0)" stroke="rgb(0,0,0)" stroke-width="1" opacity="0" d="M 54.5 0 L 90 0 L 90 35.5 L 89 35.5 L 85 22.5 L 73.5 9 Q 66.6 2.4 54.5 1 L 54.5 0 Z " /><path fill="rgb(0,0,0)" stroke="rgb(0,0,0)" stroke-width="1" opacity="0" d="M 26.5 24 L 27.5 25 L 46.5 25 Q 47.7 22.7 52.5 24 L 53.5 25 L 65.5 25 L 70 28.5 L 70 34.5 L 67 40.5 L 45.5 75 L 42 74 L 20 34.5 L 20 29.5 L 23.5 25 L 26.5 24 Z M 27 29 L 25 31 L 25 34 L 28 40 L 32 45 L 40 61 L 43 62 L 43 29 L 27 29 Z M 47 29 L 47 62 L 49 62 L 66 32 L 64 29 L 47 29 Z " /><path fill="rgb(0,0,0)" stroke="rgb(0,0,0)" stroke-width="1" opacity="0" d="M 0.5 55 Q 4.4 72.1 16.5 81 Q 23.8 87.2 35 89.5 L 0 90 L 0.5 55 Z " /><path fill="rgb(0,0,0)" stroke="rgb(0,0,0)" stroke-width="1" opacity="0" d="M 89.5 55 L 90 90 L 55 89.5 Q 71.8 85.3 81 73.5 Q 87.2 66.2 89.5 55 Z " /></svg>