<?xml version="1.0" standalone="no"?><!DOCTYPE svg PUBLIC "-//W3C//DTD SVG 1.1//EN" "http://www.w3.org/Graphics/SVG/1.1/DTD/svg11.dtd"><svg t="1713105752556" class="icon" viewBox="0 0 1024 1024" version="1.1" xmlns="http://www.w3.org/2000/svg" p-id="6735" xmlns:xlink="http://www.w3.org/1999/xlink" width="128" height="128"><path d="M512 981.333333q11.52 0 23.04-0.554666t22.954667-1.706667q11.477333-1.109333 22.869333-2.816 11.392-1.706667 22.698667-3.925333 11.306667-2.261333 22.485333-5.077334 11.178667-2.773333 22.186667-6.144 11.008-3.328 21.888-7.210666 10.837333-3.882667 21.461333-8.277334 10.666667-4.437333 21.077333-9.386666 10.410667-4.906667 20.565334-10.325334 10.197333-5.418667 20.053333-11.349333 9.898667-5.930667 19.456-12.330667 9.6-6.4 18.858667-13.226666 9.258667-6.912 18.133333-14.208 8.96-7.296 17.493333-15.018667 8.533333-7.765333 16.64-15.914667 8.149333-8.106667 15.914667-16.64 7.68-8.533333 15.018667-17.493333 7.296-8.874667 14.165333-18.133333t13.269333-18.858667q6.4-9.557333 12.330667-19.456 5.930667-9.898667 11.349333-20.053333 5.418667-10.154667 10.368-20.565334 4.906667-10.410667 9.344-21.077333 4.394667-10.624 8.277334-21.461333 3.882667-10.88 7.253333-21.888 3.328-11.008 6.101333-22.186667 2.816-11.178667 5.077334-22.485333 2.218667-11.306667 3.925333-22.698667t2.816-22.869333q1.152-11.434667 1.706667-22.954667Q981.333333 523.52 981.333333 512t-0.554666-23.04q-0.554667-11.52-1.706667-22.954667-1.109333-11.477333-2.816-22.869333-1.706667-11.392-3.925333-22.698667-2.261333-11.306667-5.077334-22.485333-2.773333-11.178667-6.144-22.186667-3.328-11.050667-7.210666-21.888-3.882667-10.837333-8.277334-21.504-4.437333-10.624-9.386666-21.034666-4.906667-10.410667-10.325334-20.565334-5.418667-10.197333-11.349333-20.053333-5.930667-9.898667-12.330667-19.456-6.4-9.6-13.226666-18.858667-6.912-9.258667-14.208-18.133333-7.296-8.96-15.018667-17.493333-7.765333-8.533333-15.914667-16.64-8.106667-8.149333-16.64-15.872-8.533333-7.765333-17.493333-15.061334-8.874667-7.296-18.133333-14.165333t-18.858667-13.269333q-9.557333-6.4-19.456-12.330667-9.898667-5.930667-20.053333-11.349333-10.154667-5.418667-20.565334-10.368-10.410667-4.906667-21.077333-9.344-10.624-4.394667-21.461333-8.277334-10.88-3.882667-21.888-7.253333-11.008-3.328-22.186667-6.101333-11.178667-2.816-22.485333-5.077334-11.306667-2.218667-22.698667-3.925333t-22.869333-2.816q-11.434667-1.109333-22.954667-1.706667Q523.52 42.666667 512 42.666667t-23.04 0.554666q-11.52 0.597333-22.954667 1.706667-11.477333 1.109333-22.869333 2.816-11.392 1.706667-22.698667 3.925333-11.306667 2.261333-22.485333 5.077334-11.178667 2.773333-22.186667 6.144-11.050667 3.328-21.888 7.210666-10.837333 3.882667-21.504 8.277334-10.624 4.437333-21.034666 9.386666-10.410667 4.906667-20.565334 10.325334-10.197333 5.418667-20.053333 11.349333-9.898667 5.930667-19.456 12.330667-9.6 6.4-18.858667 13.226666-9.258667 6.912-18.133333 14.208-8.96 7.296-17.493333 15.061334-8.533333 7.68-16.64 15.872-8.149333 8.106667-15.872 16.64-7.765333 8.533333-15.061334 17.493333-7.296 8.874667-14.165333 18.133333t-13.269333 18.858667q-6.4 9.557333-12.330667 19.456-5.930667 9.856-11.349333 20.053333-5.418667 10.154667-10.368 20.565334-4.906667 10.410667-9.344 21.034666-4.394667 10.666667-8.277334 21.504-3.882667 10.837333-7.253333 21.888-3.328 11.008-6.101333 22.186667-2.816 11.178667-5.077334 22.485333-2.218667 11.306667-3.925333 22.698667t-2.816 22.869333q-1.109333 11.434667-1.706667 22.954667Q42.666667 500.48 42.666667 512t0.554666 23.04q0.597333 11.52 1.706667 22.954667 1.109333 11.477333 2.816 22.869333 1.706667 11.392 3.925333 22.698667 2.261333 11.306667 5.077334 22.485333 2.773333 11.178667 6.144 22.186667 3.328 11.008 7.210666 21.888 3.882667 10.837333 8.277334 21.461333 4.437333 10.666667 9.386666 21.077333 4.906667 10.410667 10.325334 20.565334 5.418667 10.197333 11.349333 20.053333 5.930667 9.898667 12.330667 19.456 6.4 9.6 13.226666 18.858667 6.912 9.258667 14.208 18.133333 7.296 8.96 15.061334 17.493333 7.68 8.533333 15.872 16.64 8.106667 8.149333 16.64 15.914667 8.533333 7.68 17.493333 15.018667 8.874667 7.296 18.133333 14.165333t18.858667 13.269333q9.557333 6.4 19.456 12.330667 9.856 5.930667 20.053333 11.349333 10.154667 5.418667 20.565334 10.368 10.410667 4.906667 21.034666 9.344 10.666667 4.394667 21.504 8.277334 10.837333 3.882667 21.888 7.253333 11.008 3.328 22.186667 6.101333 11.178667 2.816 22.485333 5.077334 11.306667 2.218667 22.698667 3.925333t22.869333 2.816q11.434667 1.152 22.954667 1.706667 11.52 0.554667 23.04 0.554666z m-10.666667-673.322666a32 32 0 0 1 45.226667 0l150.613333 150.186666a32 32 0 1 1-45.226666 45.312l-96-95.744V725.333333a32 32 0 0 1-64 0V407.765333L395.946667 503.466667a32 32 0 1 1-45.226667-45.312l150.613333-150.186667z" p-id="6736" fill="#1196db"></path></svg>